<?xml version="1.0" standalone="no"?>
<!DOCTYPE svg PUBLIC "-//W3C//DTD SVG 20010904//EN"
 "http://www.w3.org/TR/2001/REC-SVG-20010904/DTD/svg10.dtd">
<svg version="1.0" xmlns="http://www.w3.org/2000/svg"
 width="1036.000000pt" height="1036.000000pt" viewBox="0 0 1036.000000 1036.000000"
 preserveAspectRatio="xMidYMid meet">
<metadata>
Created by potrace 1.14, written by Peter Selinger 2001-2017
</metadata>
<g transform="translate(0.000000,1036.000000) scale(0.100000,-0.100000)"
fill="#000000" stroke="none">
<path d="M4887 6866 c-829 -1196 -1507 -2177 -1507 -2180 0 -3 421 -6 935 -6
561 0 935 -4 935 -9 0 -5 -290 -760 -645 -1677 -354 -918 -643 -1670 -641
-1671 3 -4 3016 4343 3016 4351 0 3 -421 6 -935 6 -561 0 -935 4 -935 9 0 5
290 760 645 1677 354 918 643 1670 641 1671 -1 2 -681 -975 -1509 -2171z"/>
</g>
</svg>
