<?xml version="1.0" encoding="utf-8"?>
<!-- Generator: Adobe Illustrator 26.2.1, SVG Export Plug-In . SVG Version: 6.00 Build 0)  -->
<svg version="1.1" id="Layer_1" xmlns="http://www.w3.org/2000/svg" xmlns:xlink="http://www.w3.org/1999/xlink" x="0px" y="0px"
	 viewBox="0 0 163.5 67" style="enable-background:new 0 0 163.5 67;" xml:space="preserve">
<style type="text/css">
	.st0{fill:none;stroke:#FFFFFF;stroke-width:2;stroke-miterlimit:10;}
	.st1{fill:#B84627;}
	.st2{fill:#FFFFFF;stroke:#FFFFFF;stroke-width:2;stroke-miterlimit:10;}
</style>
<g id="Transfo" transform="translate(1.265)">
	<g id="a" transform="translate(140.895 22.107)">
		<path id="b" class="st0" d="M10.1,22.1c5.9,0,9.4-4.5,9.4-10.7c-0.1-6.2-3.6-10.7-9.4-10.7S0.7,5.1,0.6,11.3
			C0.7,17.6,4.2,22.1,10.1,22.1z M10.1,0c6.5,0,10,5.2,10,11.3s-3.5,11.3-10,11.3S0,17.5,0,11.3S3.5,0,10.1,0z"/>
	</g>
	<g id="c" transform="translate(122.283 22.624)">
		<path id="d" class="st0" d="M0.6,10.1h11.6v0.6H0.6v11H0V0h13.4v0.6H0.6V10.1z"/>
	</g>
	<g id="e" transform="translate(87.954)">
		<path id="f" class="st1" d="M0,37.8l16,0L4.6,67l26.3-37.8l-16,0L26.3,0L0,37.8z"/>
	</g>
	<g id="g" transform="translate(67.45 22.624)">
		<path id="h" class="st2" d="M0,0h0.9l14.9,20.9h0.1V0h0.6v21.6h-0.9L0.7,0.8H0.6v20.9H0V0z"/>
	</g>
	<g id="i" transform="translate(43.275 22.624)">
		<path id="j" class="st0" d="M14.5,13.9L9.3,0.6H9.2L3.9,13.9H14.5L14.5,13.9z M3.6,14.5l-2.9,7.1H0L8.9,0h0.8l8.6,21.6h-0.7
			l-2.9-7.1H3.6z"/>
	</g>
	<g id="k" transform="translate(22.039 22.624)">
		<path id="l" class="st0" d="M0.6,10.9h8.2c3.2,0,6.2-1.6,6.2-5.4c0-3.1-1.7-4.9-5.9-4.9H0.6V10.9z M0.6,21.6H0V0h8.9
			c4.5,0,6.6,1.8,6.7,5.5c0.1,2.8-1.6,4.9-4.7,5.6v0.1c3.7,0.5,4.3,2.5,4.3,6c0,1.3,0.1,3.9,0.5,4.5h-0.7c-0.4-1.5-0.5-3-0.5-4.5
			c0-3.5-0.8-5.6-5.8-5.6H0.6L0.6,21.6L0.6,21.6z"/>
	</g>
	<g id="m" transform="translate(0 22.624)">
		<path id="n" class="st0" d="M0,0.6V0h16.3v0.6H8.5v21H7.9v-21H0z"/>
	</g>
</g>
</svg>
